#!OML:ASF F:\VICON\USERDATA\INSTALL\rory3\rory3.ASF
:FULLY-SPECIFIED
:DEGREES
4200
root 5.27665 18.0295 -8.39225 1080.19 -60.179 3.53764
lowerback 11.7898 7.15917 4.09532
upperback 2.27092 9.76119 -3.88059
thorax -2.76947 4.8232 -7.61921
lowerneck -13.9422 12.065 -5.47076
upperneck 49.2205 17.9784 6.08522
head 20.7021 6.36167 7.42157
rclavicle -2.6339e-014 1.23246e-014
rhumerus -38.4833 -11.9715 -72.8774
rradius 47.3117
rwrist 2.90053
rhand -13.5561 10.9361
rfingers 7.12502
rthumb 12.5571 -18.6666
lclavicle -2.6339e-014 1.23246e-014
lhumerus -44.6526 24.5231 67.5376
lradius 34.3623
lwrist -5.49841
lhand -14.4822 30.8755
lfingers 7.12502
lthumb 11.6641 60.5308
rfemur -20.7193 -6.47771 17.7264
rtibia 29.0306
rfoot -8.41214 -5.69096
rtoes 9.71015
lfemur 2.67772 -20.2531 -19.8415
ltibia 29.2972
lfoot 20.9758 -27.3848
ltoes 14.002
4201
root 5.4273 18.0077 -8.39686 1080.39 -60.4521 3.58945
lowerback 11.7194 7.114 4.03678
upperback 2.25926 9.69522 -3.82105
thorax -2.77448 4.78957 -7.50916
lowerneck -14.034 12.0026 -5.43126
upperneck 49.229 17.8873 6.02423
head 20.7678 6.31272 7.38877
rclavicle -1.00088e-013 2.44505e-014
rhumerus -38.4499 -11.9924 -72.643
rradius 47.3672
rwrist 2.80568
rhand -13.6543 10.8751
rfingers 7.12502
rthumb 12.4625 -18.7333
lclavicle -1.00088e-013 2.44505e-014
lhumerus -44.642 24.3199 67.878
lradius 34.7316
lwrist -5.24731
lhand -14.3807 30.7956
lfingers 7.12502
lthumb 11.762 60.4454
rfemur -21.6091 -6.4173 17.5839
rtibia 29.0884
rfoot -7.79397 -5.52137
rtoes 8.08211
lfemur 3.59839 -20.7343 -20.2867
ltibia 27.5782
lfoot 17.1999 -27.517
ltoes 10.2301
4202
root 5.57788 18.0025 -8.40171 1080.55 -60.6303 3.73751
lowerback 11.6489 7.0202 3.92771
upperback 2.22786 9.55825 -3.77399
thorax -2.81671 4.71874 -7.38024
lowerneck -14.0098 11.992 -5.42556
upperneck 49.1164 17.8616 5.95757
head 20.6951 6.30677 7.33172
rclavicle 7.7526e-014 -4.28381e-014
rhumerus -38.3825 -11.8562 -72.4863
rradius 47.501
rwrist 2.34979
rhand -13.6651 10.7194
rfingers 7.12502
rthumb 12.452 -18.8897
lclavicle 7.7526e-014 -4.28381e-014
lhumerus -44.8551 23.9896 68.2957
lradius 35.4887
lwrist -4.91941
lhand -14.2765 31.6093
lfingers 7.12502
lthumb 11.8625 61.2533
rfemur -22.4798 -6.5508 17.3827
rtibia 29.085
rfoot -7.21749 -5.23936
rtoes 7.29869
lfemur 4.38748 -21.5756 -20.7777
ltibia 26.0701
lfoot 12.8478 -26.6653
ltoes 8.2325
4203
root 5.73341 17.9991 -8.40415 1080.76 -60.7079 3.8603
lowerback 11.7155 6.87055 3.79245
upperback 2.04864 9.35009 -3.69763
thorax -3.10849 4.59912 -7.23458
lowerneck -13.8747 11.9799 -5.50684
upperneck 49.1278 17.8046 6.00547
head 20.6458 6.28039 7.33807
rclavicle 1.18674e-013 -6.17226e-014
rhumerus -38.5414 -11.6237 -72.2517
rradius 47.6603
rwrist 2.12437
rhand -13.5179 10.654
rfingers 7.12502
rthumb 12.5939 -18.9464
lclavicle 1.18674e-013 -6.17226e-014
lhumerus -45.2435 23.5096 68.6505
lradius 36.1797
lwrist -4.32416
lhand -14.5694 32.0927
lfingers 7.12502
lthumb 11.5801 61.7528
rfemur -23.3052 -6.64432 17.1463
rtibia 28.9607
rfoot -6.67119 -5.00771
rtoes 7.57839
lfemur 4.89081 -22.1667 -21.1453
ltibia 24.7102
lfoot 8.84808 -25.4816
ltoes 5.69197
4204
root 5.8892 17.9851 -8.41197 1080.96 -60.8861 3.98818
lowerback 11.717 6.75613 3.51071
upperback 1.95488 9.17044 -3.54827
thorax -3.30467 4.50051 -6.91653
lowerneck -13.908 11.9348 -5.57387
upperneck 49.1593 17.801 5.87981
head 20.6998 6.23669 7.29706
rclavicle 7.06679e-014 -1.4561e-014
rhumerus -38.5024 -11.4094 -71.9611
rradius 47.7132
rwrist 2.15653
rhand -13.5813 10.5318
rfingers 7.12502
rthumb 12.5328 -19.0724
lclavicle 7.06679e-014 -1.4561e-014
lhumerus -45.4162 23.2337 69.1046
lradius 36.6608
lwrist -4.04562
lhand -14.9327 31.5888
lfingers 7.12502
lthumb 11.2297 61.2682
rfemur -24.0844 -6.61791 16.9288
rtibia 28.7111
rfoot -6.09672 -4.76087
rtoes 7.44248
lfemur 5.21589 -22.1596 -21.4418
ltibia 23.4143
lfoot 4.82451 -24.7532
ltoes 0.370111
4205
root 6.04329 17.9792 -8.42875 1081.18 -61.1003 4.04558
lowerback 11.657 6.59919 3.18924
upperback 1.9661 8.92785 -3.37239
thorax -3.37251 4.37837 -6.52299
lowerneck -13.8895 11.9844 -5.66447
upperneck 49.0173 17.9504 5.69905
head 20.599 6.26776 7.22116
rclavicle -1.85118e-015 -1.74682e-014
rhumerus -38.215 -11.1258 -71.7936
rradius 47.746
rwrist 2.14513
rhand -13.8342 10.4766
rfingers 7.12502
rthumb 12.289 -19.1423
lclavicle -1.85118e-015 -1.74682e-014
lhumerus -45.3026 23.0472 69.6114
lradius 36.8515
lwrist -4.02951
lhand -15.4948 30.4322
lfingers 7.12502
lthumb 10.6875 60.1403
rfemur -24.785 -6.49797 16.7658
rtibia 28.404
rfoot -5.68485 -4.69906
rtoes 7.29766
lfemur 5.45038 -21.9006 -21.5936
ltibia 22.0654
lfoot 2.83123 -24.0865
ltoes -0.284108
4206
root 6.19555 17.9802 -8.44567 1081.18 -61.4298 4.32559
lowerback 11.6236 6.49875 2.80146
upperback 2.03935 8.74781 -3.26195
thorax -3.37703 4.29116 -6.16642
lowerneck -13.9141 12.0137 -5.99451
upperneck 48.8407 18.0394 5.74781
head 20.4029 6.27849 7.27118
rclavicle -1.58009e-013 2.82958e-014
rhumerus -37.8214 -10.9526 -71.6845
rradius 47.7652
rwrist 2.12475
rhand -14.2727 9.94108
rfingers 7.12502
rthumb 11.8661 -19.7027
lclavicle -1.58009e-013 2.82958e-014
lhumerus -44.9758 22.8317 70.1076
lradius 37.0107
lwrist -4.00141
lhand -15.7845 29.9245
lfingers 7.12502
lthumb 10.4081 59.6469
rfemur -25.4062 -6.13564 16.4249
rtibia 28.083
rfoot -5.58512 -4.83216
rtoes 7.88402
lfemur 5.69096 -21.2975 -21.7373
ltibia 20.6014
lfoot 2.35235 -23.5767
ltoes 3.21405
4207
root 6.3465 17.9767 -8.4653 1080.96 -61.7955 4.8133
lowerback 11.7478 6.5077 2.33917
upperback 2.06697 8.69981 -3.2415
thorax -3.49433 4.26515 -5.90411
lowerneck -14.0437 11.9727 -6.15087
upperneck 48.7742 17.98 5.82621
head 20.357 6.24344 7.32334
rclavicle 4.42047e-014 -2.74074e-014
rhumerus -37.5889 -11.0554 -71.5389
rradius 47.7391
rwrist 2.14036
rhand -14.5139 9.35444
rfingers 7.12502
rthumb 11.6336 -20.3026
lclavicle 4.42047e-014 -2.74074e-014
lhumerus -44.6878 22.4494 70.5148
lradius 37.4139
lwrist -4.05535
lhand -15.6919 29.7137
lfingers 7.12502
lthumb 10.4974 59.4316
rfemur -25.9781 -5.82625 15.9965
rtibia 27.6941
rfoot -5.54153 -4.89707
rtoes 7.38533
lfemur 5.91602 -20.285 -21.9233
ltibia 19.134
lfoot 0.561142 -23.4316
ltoes 2.17617
4208
root 6.49599 17.9679 -8.49002 1080.69 -62.1593 5.37928
lowerback 11.9054 6.52291 1.85278
upperback 2.03459 8.65358 -3.27283
thorax -3.6872 4.23757 -5.69279
lowerneck -14.0202 11.9673 -6.11911
upperneck 48.6268 17.9478 5.76755
head 20.2641 6.24479 7.26165
rclavicle -6.81769e-014 -2.60905e-015
rhumerus -37.4352 -11.2127 -71.4461
rradius 47.6653
rwrist 2.15476
rhand -14.5672 9.34527
rfingers 7.12502
rthumb 11.5822 -20.3147
lclavicle -6.81769e-014 -2.60905e-015
lhumerus -44.4662 21.9516 70.8435
lradius 37.7987
lwrist -4.02766
lhand -16.1863 28.782
lfingers 7.12502
lthumb 10.0205 58.5234
rfemur -26.5841 -5.68946 15.6397
rtibia 27.282
rfoot -5.57859 -4.88219
rtoes 3.89795
lfemur 6.06455 -19.4232 -22.137
ltibia 17.7067
lfoot -1.26761 -23.0228
ltoes 0.337967
4209
root 6.64208 17.9611 -8.51307 1080.42 -62.5535 5.89049
lowerback 12.0841 6.52503 1.46569
upperback 2.02161 8.59841 -3.34109
thorax -3.8507 4.20641 -5.57346
lowerneck -13.8629 11.9607 -6.10212
upperneck 48.3967 17.8656 5.74968
head 20.0671 6.24721 7.18337
rclavicle 2.86001e-014 -1.91579e-014
rhumerus -37.2005 -11.5617 -71.4684
rradius 47.5336
rwrist 2.13002
rhand -14.8385 9.374
rfingers 7.12502
rthumb 11.3206 -20.3005
lclavicle 2.86001e-014 -1.91579e-014
lhumerus -44.1839 21.3749 71.0952
lradius 38.0726
lwrist -3.93293
lhand -16.6987 28.2765
lfingers 7.12502
lthumb 9.52602 58.0411
rfemur -27.1126 -5.61787 15.373
rtibia 26.9025
rfoot -5.7512 -4.80489
rtoes -0.59571
lfemur 6.25572 -18.8036 -22.3431
ltibia 16.2781
lfoot -1.50562 -22.5021
ltoes 2.20968
